<?xml version="1.0" encoding="UTF-8" standalone="no"?>
<!-- Created with Inkscape (http://www.inkscape.org/) -->
<svg
   xmlns:dc="http://purl.org/dc/elements/1.1/"
   xmlns:cc="http://creativecommons.org/ns#"
   xmlns:rdf="http://www.w3.org/1999/02/22-rdf-syntax-ns#"
   xmlns:svg="http://www.w3.org/2000/svg"
   xmlns="http://www.w3.org/2000/svg"
   xmlns:sodipodi="http://sodipodi.sourceforge.net/DTD/sodipodi-0.dtd"
   xmlns:inkscape="http://www.inkscape.org/namespaces/inkscape"
   width="1052.3622"
   height="744.09448"
   id="svg2"
   sodipodi:version="0.32"
   inkscape:version="0.46"
   version="1.0"
   sodipodi:docname="m-to-the-oede.svg"
   inkscape:output_extension="org.inkscape.output.svg.inkscape">
  <defs
     id="defs4">
    <inkscape:perspective
       sodipodi:type="inkscape:persp3d"
       inkscape:vp_x="0 : 526.18109 : 1"
       inkscape:vp_y="0 : 1000 : 0"
       inkscape:vp_z="744.09448 : 526.18109 : 1"
       inkscape:persp3d-origin="372.04724 : 350.78739 : 1"
       id="perspective10" />
  </defs>
  <sodipodi:namedview
     id="base"
     pagecolor="#ffffff"
     bordercolor="#666666"
     borderopacity="1.0"
     gridtolerance="10000"
     guidetolerance="10"
     objecttolerance="10"
     inkscape:pageopacity="0.0"
     inkscape:pageshadow="2"
     inkscape:zoom="1.01"
     inkscape:cx="520.72068"
     inkscape:cy="386.7996"
     inkscape:document-units="px"
     inkscape:current-layer="layer1"
     showgrid="true"
     inkscape:snap-global="false"
     inkscape:window-width="1600"
     inkscape:window-height="1125"
     inkscape:window-x="0"
     inkscape:window-y="25">
    <inkscape:grid
       type="xygrid"
       id="grid2385"
       visible="true"
       enabled="true" />
  </sodipodi:namedview>
  <metadata
     id="metadata7">
    <rdf:RDF>
      <cc:Work
         rdf:about="">
        <dc:format>image/svg+xml</dc:format>
        <dc:type
           rdf:resource="http://purl.org/dc/dcmitype/StillImage" />
      </cc:Work>
    </rdf:RDF>
  </metadata>
  <g
     inkscape:label="Layer 1"
     inkscape:groupmode="layer"
     id="layer1">
    <text
       xml:space="preserve"
       style="font-size:40px;font-style:normal;font-weight:normal;fill:#000000;fill-opacity:1;stroke:none;stroke-width:1px;stroke-linecap:butt;stroke-linejoin:miter;stroke-opacity:1;font-family:Bitstream Vera Sans"
       x="30.693069"
       y="43.104382"
       id="text2387"><tspan
         sodipodi:role="line"
         id="tspan2389"
         x="30.693069"
         y="43.104382">1. Projektdel</tspan></text>
    <text
       xml:space="preserve"
       style="font-size:40px;font-style:normal;font-weight:normal;fill:#000000;fill-opacity:1;stroke:none;stroke-width:1px;stroke-linecap:butt;stroke-linejoin:miter;stroke-opacity:1;font-family:Bitstream Vera Sans"
       x="31.326736"
       y="87.639038"
       id="text2391"><tspan
         sodipodi:role="line"
         id="tspan2393"
         x="31.326736"
         y="87.639038">2. Hvad vil vi?</tspan><tspan
         sodipodi:role="line"
         x="31.326736"
         y="137.63904"
         id="tspan2395">3. Heraf afgrænsning</tspan><tspan
         sodipodi:role="line"
         x="31.326736"
         y="187.63904"
         id="tspan2397">4. Nice to have: Parsec</tspan></text>
    <path
       style="fill:none;fill-rule:evenodd;stroke:#000000;stroke-width:1px;stroke-linecap:butt;stroke-linejoin:miter;stroke-opacity:1;font-size:12"
       d="M 590,34.094482 L 590,94.094482 L 630,94.094482 L 630,54.094482 L 590,34.094482 z"
       id="path2403" />
    <text
       xml:space="preserve"
       style="font-size:12px;font-style:normal;font-weight:normal;fill:#000000;fill-opacity:1;stroke:none;stroke-width:1px;stroke-linecap:butt;stroke-linejoin:miter;stroke-opacity:1;font-family:Bitstream Vera Sans"
       x="596.99011"
       y="73.876663"
       id="text2405"><tspan
         sodipodi:role="line"
         id="tspan2407"
         x="596.99011"
         y="73.876663">.MLB</tspan></text>
    <path
       style="fill:none;fill-rule:evenodd;stroke:#000000;stroke-width:1.50097799px;stroke-linecap:butt;stroke-linejoin:miter;stroke-opacity:1"
       d="M 680.25049,6.344971 L 680.25049,209.59399 L 889.74951,209.59399 L 889.74951,28.928196 L 680.25049,28.928196 L 680.25049,96.67787 L 690.22663,119.26109"
       id="path2409" />
    <text
       xml:space="preserve"
       style="font-size:12px;font-style:normal;font-weight:normal;fill:#000000;fill-opacity:1;stroke:none;stroke-width:1px;stroke-linecap:butt;stroke-linejoin:miter;stroke-opacity:1;font-family:Bitstream Vera Sans"
       x="695.0495"
       y="49.064777"
       id="text2411"><tspan
         sodipodi:role="line"
         id="tspan2413"
         x="695.0495"
         y="49.064777">CM</tspan><tspan
         sodipodi:role="line"
         x="695.0495"
         y="64.064774"
         id="tspan2415">Parser</tspan></text>
    <text
       xml:space="preserve"
       style="font-size:12px;font-style:normal;font-weight:normal;fill:#000000;fill-opacity:1;stroke:none;stroke-width:1px;stroke-linecap:butt;stroke-linejoin:miter;stroke-opacity:1;font-family:Bitstream Vera Sans"
       x="758.41583"
       y="42.114285"
       id="text2417"><tspan
         sodipodi:role="line"
         id="tspan2419"
         x="758.41583"
         y="42.114285" /></text>
    <text
       xml:space="preserve"
       style="font-size:12px;font-style:normal;font-weight:normal;fill:#000000;fill-opacity:1;stroke:none;stroke-width:1px;stroke-linecap:butt;stroke-linejoin:miter;stroke-opacity:1;font-family:Bitstream Vera Sans"
       x="754.43567"
       y="49.104382"
       id="text2421"><tspan
         sodipodi:role="line"
         id="tspan2423"
         x="754.43567"
         y="49.104382">Static files </tspan><tspan
         sodipodi:role="line"
         x="754.43567"
         y="64.104385"
         id="tspan2425">'parser</tspan></text>
    <text
       xml:space="preserve"
       style="font-size:12px;font-style:normal;font-weight:normal;fill:#000000;fill-opacity:1;stroke:none;stroke-width:1px;stroke-linecap:butt;stroke-linejoin:miter;stroke-opacity:1;font-family:Bitstream Vera Sans"
       x="838.79205"
       y="49.064777"
       id="text2427"><tspan
         sodipodi:role="line"
         id="tspan2429"
         x="838.79205"
         y="49.064777">MLB </tspan><tspan
         sodipodi:role="line"
         x="838.79205"
         y="64.064774"
         id="tspan2431">Parser</tspan></text>
    <path
       style="fill:none;fill-rule:evenodd;stroke:#000000;stroke-width:1px;stroke-linecap:butt;stroke-linejoin:miter;stroke-opacity:1"
       d="M 710,74.094482 C 710,84.094482 710,94.094482 710,94.094482 L 720,84.094482 L 710,94.094482 L 700,84.094482 L 700,84.094482"
       id="path2439" />
    <path
       style="fill:none;fill-rule:evenodd;stroke:#000000;stroke-width:1px;stroke-linecap:butt;stroke-linejoin:miter;stroke-opacity:1"
       d="M 780,74.094482 L 780,94.094482 L 790,84.094482 L 782.17822,93.599433"
       id="path2441" />
    <path
       style="fill:none;fill-rule:evenodd;stroke:#000000;stroke-width:1px;stroke-linecap:butt;stroke-linejoin:miter;stroke-opacity:1"
       d="M 770,84.094482 L 780,94.094482 L 780,94.094482"
       id="path2443" />
    <path
       style="fill:none;fill-rule:evenodd;stroke:#000000;stroke-width:1px;stroke-linecap:butt;stroke-linejoin:miter;stroke-opacity:1"
       d="M 850,74.094482 L 850,94.094482 L 860,84.094482 L 850,94.094482 L 840,94.094482 L 850,94.094482 L 840,84.094482 L 850,94.094482"
       id="path2445" />
    <text
       xml:space="preserve"
       style="font-size:22.20357704px;font-style:normal;font-weight:normal;fill:#000000;fill-opacity:1;stroke:none;stroke-width:1px;stroke-linecap:butt;stroke-linejoin:miter;stroke-opacity:1;font-family:Bitstream Vera Sans"
       x="892.92267"
       y="128.64064"
       id="text2447"
       transform="scale(0.7839425,1.2756038)"><tspan
         sodipodi:role="line"
         id="tspan2449"
         x="892.92267"
         y="128.64064">Source Description</tspan></text>
    <path
       style="fill:none;fill-rule:evenodd;stroke:#000000;stroke-width:1px;stroke-linecap:butt;stroke-linejoin:miter;stroke-opacity:1"
       d="M 610,34.094482 L 610,14.094482 L 850,14.094482 L 850,24.094482 L 850,24.094482"
       id="path2451" />
    <text
       xml:space="preserve"
       style="font-size:30.56773376px;font-style:normal;font-weight:normal;fill:#000000;fill-opacity:1;stroke:none;stroke-width:1px;stroke-linecap:butt;stroke-linejoin:miter;stroke-opacity:1;font-family:Bitstream Vera Sans"
       x="871.30634"
       y="250.08414"
       id="text2457"
       transform="scale(0.7919144,1.2627628)"><tspan
         sodipodi:role="line"
         id="tspan2459"
         x="871.30634"
         y="250.08414">Project Manager</tspan></text>
    <path
       style="fill:none;fill-rule:evenodd;stroke:#000000;stroke-width:1px;stroke-linecap:butt;stroke-linejoin:miter;stroke-opacity:1"
       d="M 670,274.09448 L 640,234.09448 L 640,234.09448"
       id="path2461" />
    <path
       style="fill:none;fill-rule:evenodd;stroke:#000000;stroke-width:0.99828392px;stroke-linecap:butt;stroke-linejoin:miter;stroke-opacity:1"
       d="M 609.93873,233.90698 L 660.00086,233.90698 L 660.00086,194.09362 L 609.93873,194.09362 L 609.93873,223.95365"
       id="path2463" />
    <path
       style="fill:none;fill-rule:evenodd;stroke:#000000;stroke-width:1px;stroke-linecap:butt;stroke-linejoin:miter;stroke-opacity:1"
       d="M 630,194.09448 L 610,104.09448 L 610,104.09448 L 600,124.09448 L 610,104.09448 L 610,114.09448"
       id="path2465" />
    <path
       style="fill:none;fill-rule:evenodd;stroke:#000000;stroke-width:1.93459046px;stroke-linecap:butt;stroke-linejoin:miter;stroke-opacity:1"
       d="M 610.4673,104.56178 L 630.22099,123.50831"
       id="path2467" />
    <text
       xml:space="preserve"
       style="font-size:17.90734291px;font-style:normal;font-weight:normal;fill:#000000;fill-opacity:1;stroke:none;stroke-width:1px;stroke-linecap:butt;stroke-linejoin:miter;stroke-opacity:1;font-family:Bitstream Vera Sans"
       x="415.85577"
       y="325.51678"
       id="text2469"
       transform="scale(1.4922783,0.6701163)"><tspan
         sodipodi:role="line"
         id="tspan2471"
         x="415.85577"
         y="325.51678">...</tspan></text>
    <path
       style="fill:none;fill-rule:evenodd;stroke:#000000;stroke-width:1px;stroke-linecap:butt;stroke-linejoin:miter;stroke-opacity:1"
       d="M 670,274.09448 L 670,324.09448 L 910,324.09448 L 910,284.09448 L 670,274.09448 z"
       id="path2473" />
    <text
       xml:space="preserve"
       style="font-size:23.13986969px;font-style:normal;font-weight:normal;fill:#000000;fill-opacity:1;stroke:none;stroke-width:1px;stroke-linecap:butt;stroke-linejoin:miter;stroke-opacity:1;font-family:Bitstream Vera Sans"
       x="770.67828"
       y="372.27866"
       id="text2477"
       transform="scale(0.9212664,1.0854624)"><tspan
         sodipodi:role="line"
         id="tspan2479"
         x="770.67828"
         y="372.27866">Kilde Håndtering</tspan></text>
    <path
       style="fill:none;fill-rule:evenodd;stroke:#000000;stroke-width:1px;stroke-linecap:butt;stroke-linejoin:miter;stroke-opacity:1"
       d="M 690,354.09448 L 900,354.09448 L 930,384.09448 L 920,434.09448 L 810,454.09448 L 690,414.09448 L 690,354.09448 z"
       id="path2481" />
    <text
       xml:space="preserve"
       style="font-size:12px;font-style:normal;font-weight:normal;fill:#000000;fill-opacity:1;stroke:none;stroke-width:1px;stroke-linecap:butt;stroke-linejoin:miter;stroke-opacity:1;font-family:Bitstream Vera Sans"
       x="730"
       y="484.09448"
       id="text2483"><tspan
         sodipodi:role="line"
         id="tspan2485"
         x="730"
         y="484.09448">træ til fil objekter/strukturer</tspan></text>
    <text
       xml:space="preserve"
       style="font-size:20;font-style:normal;font-weight:normal;fill:#000000;fill-opacity:1;stroke:none;stroke-width:1px;stroke-linecap:butt;stroke-linejoin:miter;stroke-opacity:1;font-family:Bitstream Vera Sans"
       x="751.48517"
       y="536.17371"
       id="text2487"><tspan
         sodipodi:role="line"
         id="tspan2489"
         x="751.48517"
         y="536.17371">SML Parser</tspan></text>
    <path
       style="fill:none;fill-rule:evenodd;stroke:#000000;stroke-width:1px;stroke-linecap:butt;stroke-linejoin:miter;stroke-opacity:1"
       d="M 740,504.09448 L 710,524.09448 L 720,564.09448 L 790,584.09448 L 900,564.09448 L 900,514.09448 L 850,504.09448 L 740,504.09448 z"
       id="path2491" />
    <path
       style="fill:none;fill-rule:evenodd;stroke:#000000;stroke-width:1px;stroke-linecap:butt;stroke-linejoin:miter;stroke-opacity:1"
       d="M 700,584.09448 L 740,624.09448 L 700,664.09448 L 700,654.09448"
       id="path2493" />
    <path
       style="fill:none;fill-rule:evenodd;stroke:#000000;stroke-width:1px;stroke-linecap:butt;stroke-linejoin:miter;stroke-opacity:1"
       d="M 645.54455,612.41131 C 647.35064,608.77238 646.79855,599.27613 650.49505,595.57963 C 653.56122,592.51346 659.18328,599.12551 662.37624,601.52022 C 667.42379,605.30589 665.38084,611.93342 672.27723,615.38161 C 676.37936,617.43268 680.21636,614.87739 683.16832,613.40141 C 684.85188,612.55963 686.27646,604.21483 687.12871,602.51032"
       id="path2507" />
    <path
       style="fill:none;fill-rule:evenodd;stroke:#000000;stroke-width:1px;stroke-linecap:butt;stroke-linejoin:miter;stroke-opacity:1"
       d="M 645.54455,638.15389 C 655.16225,633.34504 648.72364,622.01258 659.40594,619.34201 C 664.24434,618.13241 667.8764,631.33244 669.30693,634.19349 C 672.76632,641.11227 680.7088,641.8204 687.12871,643.10438 C 694.31454,644.54155 694.81039,636.65192 697.0297,632.21329 C 697.33692,631.59886 697.0297,629.13014 697.0297,628.2529"
       id="path2509" />
    <path
       style="fill:none;fill-rule:evenodd;stroke:#000000;stroke-width:1px;stroke-linecap:butt;stroke-linejoin:miter;stroke-opacity:1"
       d="M 724.75248,422.3123 L 673.26733,461.91626 L 718.81188,515.38161 L 717.82178,484.68854 L 718.81188,516.37171 L 681.18812,514.39151"
       id="path2511" />
    <path
       style="fill:none;fill-rule:evenodd;stroke:#000000;stroke-width:1px;stroke-linecap:butt;stroke-linejoin:miter;stroke-opacity:1"
       d="M 691.08911,129.243 L 872.27723,135.18359 L 869.30693,187.65884 L 691.08911,188.64894 L 691.08911,129.243 z"
       id="path2513" />
    <path
       style="fill:none;fill-rule:evenodd;stroke:#000000;stroke-width:1px;stroke-linecap:butt;stroke-linejoin:miter;stroke-opacity:1"
       d="M 788.11881,583.69844 L 790.09901,619.34201"
       id="path2515" />
    <path
       style="fill:none;fill-rule:evenodd;stroke:#000000;stroke-width:1px;stroke-linecap:butt;stroke-linejoin:miter;stroke-opacity:1"
       d="M 798,624.09448 L 759.38614,666.66874 L 800.9703,717.16379 C 800.9703,717.16379 853.4455,675.57963 853.4455,671.61923 C 853.4455,667.65883 801.9604,627.06478 798,624.09448 z"
       id="path2519" />
    <path
       style="fill:none;fill-rule:evenodd;stroke:#000000;stroke-width:1px;stroke-linecap:butt;stroke-linejoin:miter;stroke-opacity:1"
       d="M 788.09901,623.10438 L 749.48515,665.67864 L 791.06931,716.17369 C 791.06931,716.17369 843.54455,674.58953 843.54455,670.62913 C 843.54455,666.66873 792.05941,626.07468 788.09901,623.10438 z"
       id="path2521" />
    <path
       style="fill:none;fill-rule:evenodd;stroke:#000000;stroke-width:1px;stroke-linecap:butt;stroke-linejoin:miter;stroke-opacity:1"
       d="M 777.20792,623.10438 L 738.59406,665.67864 L 780.17822,716.17369 C 780.17822,716.17369 832.65346,674.58953 832.65346,670.62913 C 832.65346,666.66873 781.16832,626.07468 777.20792,623.10438 z"
       id="path2525" />
    <text
       xml:space="preserve"
       style="font-size:18px;font-style:normal;font-weight:normal;fill:#000000;fill-opacity:1;stroke:none;stroke-width:1px;stroke-linecap:butt;stroke-linejoin:miter;stroke-opacity:1;font-family:Bitstream Vera Sans"
       x="760.23761"
       y="674.78754"
       id="text2527"><tspan
         sodipodi:role="line"
         id="tspan2529"
         x="760.23761"
         y="674.78754">Plugins</tspan></text>
    <path
       style="fill:none;fill-rule:evenodd;stroke:#000000;stroke-width:1px;stroke-linecap:butt;stroke-linejoin:miter;stroke-opacity:1"
       d="M 790.09901,618.35191 L 809.90099,602.51032 L 790.09901,618.35191 z"
       id="path2531" />
    <path
       style="fill:none;fill-rule:evenodd;stroke:#000000;stroke-width:1px;stroke-linecap:butt;stroke-linejoin:miter;stroke-opacity:1"
       d="M 788.11881,618.35191 L 772.27723,603.50042"
       id="path2533" />
    <path
       style="fill:none;fill-rule:evenodd;stroke:#000000;stroke-width:1px;stroke-linecap:butt;stroke-linejoin:miter;stroke-opacity:1"
       d="M 854.45545,671.81725 C 855.77558,671.81725 855.77558,671.81725 854.45545,671.81725 z"
       id="path2535" />
    <path
       style="fill:none;fill-rule:evenodd;stroke:#000000;stroke-width:1px;stroke-linecap:butt;stroke-linejoin:miter;stroke-opacity:1"
       d="M 851.48515,672.80735 L 923.76238,672.80735 L 899.0099,647.06478"
       id="path2537" />
    <path
       style="fill:none;fill-rule:evenodd;stroke:#000000;stroke-width:1px;stroke-linecap:butt;stroke-linejoin:miter;stroke-opacity:1"
       d="M 924.75248,674.78755 L 899.0099,692.60933"
       id="path2539" />
    <text
       xml:space="preserve"
       style="font-size:24px;font-style:normal;font-weight:normal;fill:#000000;fill-opacity:1;stroke:none;stroke-width:1px;stroke-linecap:butt;stroke-linejoin:miter;stroke-opacity:1;font-family:Bitstream Vera Sans"
       x="929.58417"
       y="682.72815"
       id="text2541"><tspan
         sodipodi:role="line"
         id="tspan2543"
         x="929.58417"
         y="682.72815">&quot;Hints&quot;</tspan></text>
    <path
       style="fill:none;fill-rule:evenodd;stroke:#000000;stroke-width:1px;stroke-linecap:butt;stroke-linejoin:miter;stroke-opacity:1"
       d="M 52.475248,595.57963 L 50.49505,612.41131 L 100.9901,614.39151 L 100.9901,594.58953 L 52.475248,595.57963 z"
       id="path2547" />
    <text
       xml:space="preserve"
       style="font-size:20px;font-style:normal;font-weight:normal;fill:#000000;fill-opacity:1;stroke:none;stroke-width:1px;stroke-linecap:butt;stroke-linejoin:miter;stroke-opacity:1;font-family:Bitstream Vera Sans"
       x="116.83168"
       y="610.43115"
       id="text2549"><tspan
         sodipodi:role="line"
         id="tspan2551"
         x="116.83168"
         y="610.43115">: Signatur / Interface</tspan></text>
    <path
       style="fill:none;fill-rule:evenodd;stroke:#000000;stroke-width:1px;stroke-linecap:butt;stroke-linejoin:miter;stroke-opacity:1"
       d="M 53.465347,644.09448 L 100.9901,645.08458"
       id="path2557" />
    <path
       style="fill:none;fill-rule:evenodd;stroke:#000000;stroke-width:1px;stroke-linecap:butt;stroke-linejoin:miter;stroke-opacity:1"
       d="M 51.485149,655.97567 L 99.009901,653.00537"
       id="path2559" />
    <path
       style="fill:none;fill-rule:evenodd;stroke:#000000;stroke-width:1px;stroke-linecap:butt;stroke-linejoin:miter;stroke-opacity:1"
       d="M 97.029703,628.2529 L 110.89109,647.06478 L 93.069307,665.87666"
       id="path2561" />
    <text
       xml:space="preserve"
       style="font-size:17.11029816px;font-style:normal;font-weight:normal;fill:#000000;fill-opacity:1;stroke:none;stroke-width:1px;stroke-linecap:butt;stroke-linejoin:miter;stroke-opacity:1;font-family:Bitstream Vera Sans"
       x="142.14891"
       y="555.46198"
       id="text2563"
       transform="scale(0.8476928,1.1796727)"><tspan
         sodipodi:role="line"
         id="tspan2565"
         x="142.14891"
         y="555.46198">: Argument til functor</tspan></text>
    <text
       xml:space="preserve"
       style="font-size:14.20196438px;font-style:normal;font-weight:normal;fill:#000000;fill-opacity:1;stroke:none;stroke-width:1px;stroke-linecap:butt;stroke-linejoin:miter;stroke-opacity:1;font-family:Bitstream Vera Sans"
       x="115.37043"
       y="594.38696"
       id="text2587"
       transform="scale(0.8768098,1.1404982)"><tspan
         sodipodi:role="line"
         id="tspan2589"
         x="115.37043"
         y="594.38696">#1: Anotering til ændrede flier</tspan><tspan
         sodipodi:role="line"
         x="115.37043"
         y="612.1394"
         id="tspan2591">(kun genparses)</tspan><tspan
         sodipodi:role="line"
         x="115.37043"
         y="629.89185"
         id="tspan2593">Snedig håndtering af filer med mulighed for at apply'e ændringer </tspan><tspan
         sodipodi:role="line"
         x="115.37043"
         y="647.64435"
         id="tspan2595">fra brugeren der ikke er gemt i den oprindelige fil</tspan></text>
    <path
       style="fill:none;fill-rule:evenodd;stroke:#000000;stroke-width:1px;stroke-linecap:butt;stroke-linejoin:miter;stroke-opacity:1"
       d="M 507.92079,119.34201 L 506.93069,149.04498 L 535.64356,147.06478 L 535.64356,123.3024 L 523.76238,106.47072 L 507.92079,108.45092 L 507.92079,119.34201 z"
       id="path2597" />
    <path
       style="fill:none;fill-rule:evenodd;stroke:#000000;stroke-width:1px;stroke-linecap:butt;stroke-linejoin:miter;stroke-opacity:1"
       d="M 510.39604,183.243 L 509.40594,212.94597 L 538.11881,210.96577 L 538.11881,187.20339 L 526.23763,170.37171 L 510.39604,172.35191 L 510.39604,183.243 z"
       id="path2599" />
    <path
       style="fill:none;fill-rule:evenodd;stroke:#000000;stroke-width:1px;stroke-linecap:butt;stroke-linejoin:miter;stroke-opacity:1"
       d="M 518.31683,186.21329 L 517.32673,215.91626 L 546.0396,213.93606 L 546.0396,190.17368 L 534.15842,173.342 L 518.31683,175.3222 L 518.31683,186.21329 z"
       id="path2603" />
    <path
       style="fill:none;fill-rule:evenodd;stroke:#000000;stroke-width:1px;stroke-linecap:butt;stroke-linejoin:miter;stroke-opacity:1"
       d="M 516.33663,121.81726 L 515.34653,151.52023 L 544.0594,149.54003 L 544.0594,125.77765 L 532.17822,108.94597 L 516.33663,110.92617 L 516.33663,121.81726 z"
       id="path2605" />
    <text
       xml:space="preserve"
       style="font-size:12px;font-style:normal;font-weight:normal;fill:#000000;fill-opacity:1;stroke:none;stroke-width:1px;stroke-linecap:butt;stroke-linejoin:miter;stroke-opacity:1;font-family:Bitstream Vera Sans"
       x="508.91089"
       y="102.56973"
       id="text2607"><tspan
         sodipodi:role="line"
         id="tspan2609"
         x="508.91089"
         y="102.56973">.SML</tspan></text>
    <text
       xml:space="preserve"
       style="font-size:12px;font-style:normal;font-weight:normal;fill:#000000;fill-opacity:1;stroke:none;stroke-width:1px;stroke-linecap:butt;stroke-linejoin:miter;stroke-opacity:1;font-family:Bitstream Vera Sans"
       x="510.89108"
       y="168.94597"
       id="text2611"><tspan
         sodipodi:role="line"
         id="tspan2613"
         x="510.89108"
         y="168.94597">.SIG</tspan></text>
    <path
       style="fill:none;fill-rule:evenodd;stroke:#000000;stroke-width:1px;stroke-linecap:butt;stroke-linejoin:miter;stroke-opacity:1"
       d="M 515.84158,78.747948 C 519.01513,79.311543 526.91324,74.697268 530.69307,72.807354 C 534.18688,71.060447 540.35096,71.630504 543.56436,70.827156 C 548.4161,69.614219 551.15539,70.497192 556.43564,71.817255 C 560.07051,72.725971 560.65836,79.797214 561.38614,82.708344 C 562.4411,86.928192 564.35644,90.085594 564.35644,95.579631 C 564.35644,99.598849 577.13379,95.579631 579.20792,95.579631 C 587.19528,95.579631 586.02232,94.064604 584.15842,101.52022 C 583.07618,105.84915 582.32903,110.81797 581.18812,115.38161 C 580.32679,118.82694 582.88666,125.70939 584.15842,128.2529 C 586.41329,132.76265 585.89981,139.17888 587.12871,144.09448 C 588.44642,149.36532 588.11881,155.1608 588.11881,160.92617 C 588.11881,165.19851 586.02575,172.04298 584.15842,175.77765 C 581.37098,181.35252 579.68167,185.72125 577.22772,190.62914 C 575.14415,194.79629 567.54416,197.55983 563.36634,197.55983"
       id="path2615" />
    <path
       style="fill:none;fill-rule:evenodd;stroke:#000000;stroke-width:1px;stroke-linecap:butt;stroke-linejoin:miter;stroke-opacity:1"
       d="M 487.12871,20.332106 L 499.0099,222.3123 L 30.693069,229.243"
       id="path2617" />
    <text
       xml:space="preserve"
       style="font-size:19.38417053px;font-style:normal;font-weight:normal;fill:#000000;fill-opacity:1;stroke:none;stroke-width:1px;stroke-linecap:butt;stroke-linejoin:miter;stroke-opacity:1;font-family:Bitstream Vera Sans"
       x="598.4212"
       y="273.14313"
       id="text2619"
       transform="scale(0.8719554,1.1468477)"><tspan
         sodipodi:role="line"
         id="tspan2621"
         x="598.4212"
         y="273.14313">Tilføj / fjern filer</tspan></text>
    <path
       style="fill:none;fill-rule:evenodd;stroke:#000000;stroke-width:1px;stroke-linecap:butt;stroke-linejoin:miter;stroke-opacity:1"
       d="M 520.79208,284.68854 L 647.52475,284.68854 L 615.84158,269.83706 L 647.52475,282.70834 L 619.80198,295.57963"
       id="path2623" />
    <text
       xml:space="preserve"
       style="font-size:16px;font-style:normal;font-weight:normal;fill:#000000;fill-opacity:1;stroke:none;stroke-width:1px;stroke-linecap:butt;stroke-linejoin:miter;stroke-opacity:1;font-family:Bitstream Vera Sans"
       x="657.42572"
       y="368.92618"
       id="text2625"><tspan
         sodipodi:role="line"
         id="tspan2627"
         x="657.42572"
         y="368.92618">#1</tspan></text>
    <text
       xml:space="preserve"
       style="font-size:18px;font-style:normal;font-weight:normal;fill:#000000;fill-opacity:1;stroke:none;stroke-width:1px;stroke-linecap:butt;stroke-linejoin:miter;stroke-opacity:1;font-family:Bitstream Vera Sans"
       x="528.65344"
       y="411.93607"
       id="text2629"><tspan
         sodipodi:role="line"
         id="tspan2631"
         x="528.65344"
         y="411.93607">Ændring i filer</tspan></text>
    <path
       style="fill:none;fill-rule:evenodd;stroke:#000000;stroke-width:1px;stroke-linecap:butt;stroke-linejoin:miter;stroke-opacity:1"
       d="M 517.82178,381.71824 L 651.48515,383.69844 L 630.69307,361.91626 L 649.50495,381.71824 L 631.68317,392.60933"
       id="path2633" />
    <path
       style="fill:none;fill-rule:evenodd;stroke:#000000;stroke-width:1px;stroke-linecap:butt;stroke-linejoin:miter;stroke-opacity:1"
       d="M 615.84158,621.32221 C 609.39236,624.94417 601.77412,619.85363 593.06931,616.37171 C 568.80308,606.66522 554.71751,597.8219 536.63366,579.73805 C 525.22864,568.33303 517.70388,551.19801 507.92079,538.15389 C 498.99449,526.25215 487.50076,514.76356 476.23762,503.50042 C 457.05439,484.31719 436.16385,475.2263 412.87129,461.91626 C 402.09342,455.75748 388.98151,457.70689 377.22772,453.00537 C 370.45184,450.29502 362.97008,453.15384 358.41584,452.01527 C 354.84258,451.12196 357.63733,450.72475 360.39604,450.03508"
       id="path2635" />
    <path
       style="fill:none;fill-rule:evenodd;stroke:#000000;stroke-width:1px;stroke-linecap:butt;stroke-linejoin:miter;stroke-opacity:1"
       d="M 359.40594,433.20339 C 353.22226,431.65747 355.32579,445.3241 352.47525,451.02518 C 351.73727,452.50113 349.83498,453.00537 348.51485,453.99547 C 346.52421,457.97676 366.21596,460.92617 368.31683,460.92617 C 368.82014,460.92617 371.90858,464.51791 372.27723,464.88656"
       id="path2637" />
    <path
       style="fill:none;fill-rule:evenodd;stroke:#000000;stroke-width:1px;stroke-linecap:butt;stroke-linejoin:miter;stroke-opacity:1"
       d="M 343.56436,412.41131 C 355.76353,412.41131 372.47764,417.82412 386.13861,419.34201 C 400.88146,420.9801 414.13548,420.33211 428.71287,420.33211 C 435.44787,420.33211 442.21492,415.74095 445.54455,412.41131 C 448.43156,409.52431 447.36693,393.91507 449.50495,389.63904 C 455.04348,378.56198 456.30129,362.31934 460.39604,350.03508 C 464.06404,339.03109 469.04647,324.63978 475.24752,316.37171 C 480.26066,309.68753 486.07062,312.41131 493.06931,312.41131 C 496.49821,312.41131 498.48722,312.41131 500.9901,312.41131"
       id="path2639" />
    <path
       style="fill:none;fill-rule:evenodd;stroke:#000000;stroke-width:1px;stroke-linecap:butt;stroke-linejoin:miter;stroke-opacity:1"
       d="M 485.14851,297.55983 C 493.24631,297.55983 496.80015,307.15475 500,311.42122 C 500.82667,312.52345 501.61821,313.84854 501.9802,314.39151 C 502.11722,314.5742 493.7161,329.9296 493.06931,331.2232 C 491.60678,334.14825 490.0566,337.24861 489.10891,339.14399"
       id="path2641" />
    <path
       style="fill:none;fill-rule:evenodd;stroke:#000000;stroke-width:1px;stroke-linecap:butt;stroke-linejoin:miter;stroke-opacity:1"
       d="M 379.20792,406.47072 C 370.36514,424.15627 388.11881,463.49756 388.11881,485.67864 C 388.11881,489.74714 388.24881,493.12931 389.10891,496.56973"
       id="path2643" />
    <path
       style="fill:none;fill-rule:evenodd;stroke:#000000;stroke-width:1px;stroke-linecap:butt;stroke-linejoin:miter;stroke-opacity:1"
       d="M 396.0396,405.48062 C 396.0396,429.78727 404.9505,455.5173 404.9505,479.73805 C 404.9505,482.18015 405.94059,484.99213 405.94059,487.65884"
       id="path2645" />
    <text
       xml:space="preserve"
       style="font-size:21.12827301px;font-style:normal;font-weight:normal;fill:#000000;fill-opacity:1;stroke:none;stroke-width:1px;stroke-linecap:butt;stroke-linejoin:miter;stroke-opacity:1;font-family:Bitstream Vera Sans"
       x="483.46878"
       y="386.82071"
       id="text2647"
       transform="scale(0.8586075,1.1646765)"><tspan
         sodipodi:role="line"
         id="tspan2649"
         x="483.46878"
         y="386.82071">JSON</tspan></text>
    <path
       style="fill:none;fill-rule:evenodd;stroke:#000000;stroke-width:1px;stroke-linecap:butt;stroke-linejoin:miter;stroke-opacity:1"
       d="M 436.63366,418.35191 C 443.0359,415.49171 458.32744,415.36393 468.31683,417.36181 C 484.44059,420.58656 495.66009,429.85358 506.93069,441.12419 C 515.55628,449.74977 524.35984,456.31137 530.69307,466.86676 C 534.15179,472.63129 535.27615,477.39043 539.60396,481.71824 C 544.17321,486.2875 547.60117,491.77208 550.49505,497.55983 C 553.67342,503.91657 555.78693,509.79943 558.41584,516.37171 C 560.694,522.0671 566.58912,525.96702 572.27723,530.2331 C 576.97892,533.75937 578.62658,539.55274 582.17822,543.10438 C 587.11971,548.04587 591.48768,549.24426 597.0297,552.01527 C 600.04821,553.52453 600.4867,552.51868 602.9703,550.03508"
       id="path2651" />
    <path
       style="fill:none;fill-rule:evenodd;stroke:#000000;stroke-width:1px;stroke-linecap:butt;stroke-linejoin:miter;stroke-opacity:1"
       d="M 599.0099,535.18359 C 602.00774,536.68251 605.32768,552.76964 607.92079,557.95587 C 608.82216,559.7586 608.42127,563.91818 608.91089,565.87666 C 610.01776,568.0904 595.56594,562.05607 586.13861,554.98557 C 582.63289,552.35628 573.44781,553.59067 570.29703,552.01527"
       id="path2653" />
    <text
       xml:space="preserve"
       style="font-size:14.35458469px;font-style:normal;font-weight:normal;fill:#000000;fill-opacity:1;stroke:none;stroke-width:1px;stroke-linecap:butt;stroke-linejoin:miter;stroke-opacity:1;font-family:Bitstream Vera Sans"
       x="620.78204"
       y="467.56577"
       id="text2655"
       transform="scale(0.9218494,1.0847759)"><tspan
         sodipodi:role="line"
         id="tspan2657"
         x="620.78204"
         y="467.56577">Anmodning</tspan><tspan
         sodipodi:role="line"
         x="620.78204"
         y="485.509"
         id="tspan2659">om hjælp</tspan></text>
    <path
       style="fill:none;fill-rule:evenodd;stroke:#000000;stroke-width:1px;stroke-linecap:butt;stroke-linejoin:miter;stroke-opacity:1"
       d="M 326.73267,391.61923 C 324.01621,383.74542 315.55534,382.88431 306.93069,380.72815 C 281.22769,374.30239 250.11785,385.23546 226.73267,394.58953 C 218.31858,397.95517 218.81188,408.30662 218.81188,416.37171 C 218.81188,436.04804 231.45534,460.85165 238.61386,478.74795 C 243.92289,492.02051 246.95871,499.44537 254.45545,509.44102 C 260.87848,518.00506 277.62884,509.56626 282.17822,503.50042 C 283.01834,502.38025 284.15842,501.52022 285.14851,500.53013 C 295.30481,490.37383 303.51571,475.57619 306.93069,461.91626 C 309.35064,452.23649 315.87457,442.93944 317.82178,433.20339 C 319.52837,424.67045 323.62378,415.936 325.74257,407.46082 C 326.86832,402.95782 327.72277,401.14474 327.72277,396.56973"
       id="path2661" />
    <text
       xml:space="preserve"
       style="font-size:31.11318588px;font-style:normal;font-weight:normal;fill:#000000;fill-opacity:1;stroke:none;stroke-width:1px;stroke-linecap:butt;stroke-linejoin:miter;stroke-opacity:1;font-family:Bitstream Vera Sans"
       x="375.0528"
       y="273.9733"
       id="text2667"
       transform="scale(0.6446651,1.551193)"><tspan
         sodipodi:role="line"
         id="tspan2669"
         x="375.0528"
         y="273.9733">Emacs </tspan><tspan
         sodipodi:role="line"
         x="375.0528"
         y="312.86478"
         id="tspan2671">LISP</tspan></text>
  </g>
</svg>
